<?xml version="1.0" encoding="UTF-8"?>
<svg xmlns="http://www.w3.org/2000/svg" style="display: none;">
  <symbol viewBox="0 0 20 20" fill="currentColor" aria-hidden="true" id="hr-chevron-double-down"><path fill-rule="evenodd" d="M15.707 4.293a1 1 0 010 1.414l-5 5a1 1 0 01-1.414 0l-5-5a1 1 0 011.414-1.414L10 8.586l4.293-4.293a1 1 0 011.414 0zm0 6a1 1 0 010 1.414l-5 5a1 1 0 01-1.414 0l-5-5a1 1 0 111.414-1.414L10 14.586l4.293-4.293a1 1 0 011.414 0z" clip-rule="evenodd"/></symbol>
  <symbol viewBox="0 0 20 20" fill="currentColor" aria-hidden="true" id="hr-chevron-double-left"><path fill-rule="evenodd" d="M15.707 15.707a1 1 0 01-1.414 0l-5-5a1 1 0 010-1.414l5-5a1 1 0 111.414 1.414L11.414 10l4.293 4.293a1 1 0 010 1.414zm-6 0a1 1 0 01-1.414 0l-5-5a1 1 0 010-1.414l5-5a1 1 0 011.414 1.414L5.414 10l4.293 4.293a1 1 0 010 1.414z" clip-rule="evenodd"/></symbol>
  <symbol viewBox="0 0 20 20" fill="currentColor" aria-hidden="true" id="hr-chevron-double-right"><path fill-rule="evenodd" d="M10.293 15.707a1 1 0 010-1.414L14.586 10l-4.293-4.293a1 1 0 111.414-1.414l5 5a1 1 0 010 1.414l-5 5a1 1 0 01-1.414 0z" clip-rule="evenodd"/><path fill-rule="evenodd" d="M4.293 15.707a1 1 0 010-1.414L8.586 10 4.293 5.707a1 1 0 011.414-1.414l5 5a1 1 0 010 1.414l-5 5a1 1 0 01-1.414 0z" clip-rule="evenodd"/></symbol>
  <symbol viewBox="0 0 20 20" fill="currentColor" aria-hidden="true" id="hr-chevron-double-up"><path fill-rule="evenodd" d="M4.293 15.707a1 1 0 010-1.414l5-5a1 1 0 011.414 0l5 5a1 1 0 01-1.414 1.414L10 11.414l-4.293 4.293a1 1 0 01-1.414 0zm0-6a1 1 0 010-1.414l5-5a1 1 0 011.414 0l5 5a1 1 0 01-1.414 1.414L10 5.414 5.707 9.707a1 1 0 01-1.414 0z" clip-rule="evenodd"/></symbol>
  <symbol viewBox="0 0 20 20" fill="currentColor" aria-hidden="true" id="hr-chevron-down"><path fill-rule="evenodd" d="M5.293 7.293a1 1 0 011.414 0L10 10.586l3.293-3.293a1 1 0 111.414 1.414l-4 4a1 1 0 01-1.414 0l-4-4a1 1 0 010-1.414z" clip-rule="evenodd"/></symbol>
  <symbol viewBox="0 0 20 20" fill="currentColor" aria-hidden="true" id="hr-chevron-left"><path fill-rule="evenodd" d="M12.707 5.293a1 1 0 010 1.414L9.414 10l3.293 3.293a1 1 0 01-1.414 1.414l-4-4a1 1 0 010-1.414l4-4a1 1 0 011.414 0z" clip-rule="evenodd"/></symbol>
  <symbol viewBox="0 0 20 20" fill="currentColor" aria-hidden="true" id="hr-chevron-right"><path fill-rule="evenodd" d="M7.293 14.707a1 1 0 010-1.414L10.586 10 7.293 6.707a1 1 0 011.414-1.414l4 4a1 1 0 010 1.414l-4 4a1 1 0 01-1.414 0z" clip-rule="evenodd"/></symbol>
  <symbol viewBox="0 0 20 20" fill="currentColor" aria-hidden="true" id="hr-chevron-up"><path fill-rule="evenodd" d="M14.707 12.707a1 1 0 01-1.414 0L10 9.414l-3.293 3.293a1 1 0 01-1.414-1.414l4-4a1 1 0 011.414 0l4 4a1 1 0 010 1.414z" clip-rule="evenodd"/></symbol>
  <symbol viewBox="0 0 20 20" fill="currentColor" aria-hidden="true" id="hr-arrow-down"><path fill-rule="evenodd" d="M16.707 10.293a1 1 0 010 1.414l-6 6a1 1 0 01-1.414 0l-6-6a1 1 0 111.414-1.414L9 14.586V3a1 1 0 012 0v11.586l4.293-4.293a1 1 0 011.414 0z" clip-rule="evenodd"/></symbol>
  <symbol viewBox="0 0 20 20" fill="currentColor" aria-hidden="true" id="hr-arrow-left"><path fill-rule="evenodd" d="M9.707 16.707a1 1 0 01-1.414 0l-6-6a1 1 0 010-1.414l6-6a1 1 0 011.414 1.414L5.414 9H17a1 1 0 110 2H5.414l4.293 4.293a1 1 0 010 1.414z" clip-rule="evenodd"/></symbol>
  <symbol viewBox="0 0 20 20" fill="currentColor" aria-hidden="true" id="hr-arrow-right"><path fill-rule="evenodd" d="M10.293 3.293a1 1 0 011.414 0l6 6a1 1 0 010 1.414l-6 6a1 1 0 01-1.414-1.414L14.586 11H3a1 1 0 110-2h11.586l-4.293-4.293a1 1 0 010-1.414z" clip-rule="evenodd"/></symbol>
  <symbol viewBox="0 0 20 20" fill="currentColor" aria-hidden="true" id="hr-arrow-up"><path fill-rule="evenodd" d="M3.293 9.707a1 1 0 010-1.414l6-6a1 1 0 011.414 0l6 6a1 1 0 01-1.414 1.414L11 5.414V17a1 1 0 11-2 0V5.414L4.707 9.707a1 1 0 01-1.414 0z" clip-rule="evenodd"/></symbol>
  <symbol viewBox="0 0 20 20" fill="currentColor" aria-hidden="true" id="hr-at-symbol"><path fill-rule="evenodd" d="M14.243 5.757a6 6 0 10-.986 9.284 1 1 0 111.087 1.678A8 8 0 1118 10a3 3 0 01-4.8 2.401A4 4 0 1114 10a1 1 0 102 0c0-1.537-.586-3.07-1.757-4.243zM12 10a2 2 0 10-4 0 2 2 0 004 0z" clip-rule="evenodd"/></symbol>
  <symbol viewBox="0 0 20 20" fill="currentColor" aria-hidden="true" id="hr-rewind"><path d="M8.445 14.832A1 1 0 0010 14v-2.798l5.445 3.63A1 1 0 0017 14V6a1 1 0 00-1.555-.832L10 8.798V6a1 1 0 00-1.555-.832l-6 4a1 1 0 000 1.664l6 4z"/></symbol>
  <symbol viewBox="0 0 20 20" fill="currentColor" aria-hidden="true" id="hr-menu"><path fill-rule="evenodd" d="M3 5a1 1 0 011-1h12a1 1 0 110 2H4a1 1 0 01-1-1zM3 10a1 1 0 011-1h12a1 1 0 110 2H4a1 1 0 01-1-1zM3 15a1 1 0 011-1h12a1 1 0 110 2H4a1 1 0 01-1-1z" clip-rule="evenodd"/></symbol>
  <symbol viewBox="0 0 20 20" fill="currentColor" aria-hidden="true" id="hr-bell"><path d="M10 2a6 6 0 00-6 6v3.586l-.707.707A1 1 0 004 14h12a1 1 0 00.707-1.707L16 11.586V8a6 6 0 00-6-6zM10 18a3 3 0 01-3-3h6a3 3 0 01-3 3z"/></symbol>
  <symbol viewBox="0 0 20 20" fill="currentColor" aria-hidden="true" id="hr-bookmark"><path d="M5 4a2 2 0 012-2h6a2 2 0 012 2v14l-5-2.5L5 18V4z"/></symbol>
  <symbol viewBox="0 0 20 20" fill="currentColor" aria-hidden="true" id="hr-briefcase"><path fill-rule="evenodd" d="M6 6V5a3 3 0 013-3h2a3 3 0 013 3v1h2a2 2 0 012 2v3.57A22.952 22.952 0 0110 13a22.95 22.95 0 01-8-1.43V8a2 2 0 012-2h2zm2-1a1 1 0 011-1h2a1 1 0 011 1v1H8V5zm1 5a1 1 0 011-1h.01a1 1 0 110 2H10a1 1 0 01-1-1z" clip-rule="evenodd"/><path d="M2 13.692V16a2 2 0 002 2h12a2 2 0 002-2v-2.308A24.974 24.974 0 0110 15c-2.796 0-5.487-.46-8-1.308z"/></symbol>
  <symbol viewBox="0 0 20 20" fill="currentColor" aria-hidden="true" id="hr-calendar"><path fill-rule="evenodd" d="M6 2a1 1 0 00-1 1v1H4a2 2 0 00-2 2v10a2 2 0 002 2h12a2 2 0 002-2V6a2 2 0 00-2-2h-1V3a1 1 0 10-2 0v1H7V3a1 1 0 00-1-1zm0 5a1 1 0 000 2h8a1 1 0 100-2H6z" clip-rule="evenodd"/></symbol>
  <symbol viewBox="0 0 20 20" fill="currentColor" aria-hidden="true" id="hr-academic-cap"><path d="M10.394 2.08a1 1 0 00-.788 0l-7 3a1 1 0 000 1.84L5.25 8.051a.999.999 0 01.356-.257l4-1.714a1 1 0 11.788 1.838L7.667 9.088l1.94.831a1 1 0 00.787 0l7-3a1 1 0 000-1.838l-7-3zM3.31 9.397L5 10.12v4.102a8.969 8.969 0 00-1.05-.174 1 1 0 01-.89-.89 11.115 11.115 0 01.25-3.762zM9.3 16.573A9.026 9.026 0 007 14.935v-3.957l1.818.78a3 3 0 002.364 0l5.508-2.361a11.026 11.026 0 01.25 3.762 1 1 0 01-.89.89 8.968 8.968 0 00-5.35 2.524 1 1 0 01-1.4 0zM6 18a1 1 0 001-1v-2.065a8.935 8.935 0 00-2-.712V17a1 1 0 001 1z"/></symbol>
  <symbol viewBox="0 0 20 20" fill="currentColor" aria-hidden="true" id="hr-chart-pie"><path d="M2 10a8 8 0 018-8v8h8a8 8 0 11-16 0z"/><path d="M12 2.252A8.014 8.014 0 0117.748 8H12V2.252z"/></symbol>
  <symbol viewBox="0 0 20 20" fill="currentColor" aria-hidden="true" id="hr-check-circle"><path fill-rule="evenodd" d="M10 18a8 8 0 100-16 8 8 0 000 16zm3.707-9.293a1 1 0 00-1.414-1.414L9 10.586 7.707 9.293a1 1 0 00-1.414 1.414l2 2a1 1 0 001.414 0l4-4z" clip-rule="evenodd"/></symbol>
  <symbol viewBox="0 0 20 20" fill="currentColor" aria-hidden="true" id="hr-check"><path fill-rule="evenodd" d="M16.707 5.293a1 1 0 010 1.414l-8 8a1 1 0 01-1.414 0l-4-4a1 1 0 011.414-1.414L8 12.586l7.293-7.293a1 1 0 011.414 0z" clip-rule="evenodd"/></symbol>
  <symbol viewBox="0 0 20 20" fill="currentColor" aria-hidden="true" id="hr-clock"><path fill-rule="evenodd" d="M10 18a8 8 0 100-16 8 8 0 000 16zm1-12a1 1 0 10-2 0v4a1 1 0 00.293.707l2.828 2.829a1 1 0 101.415-1.415L11 9.586V6z" clip-rule="evenodd"/></symbol>
  <symbol viewBox="0 0 20 20" fill="currentColor" aria-hidden="true" id="hr-code"><path fill-rule="evenodd" d="M12.316 3.051a1 1 0 01.633 1.265l-4 12a1 1 0 11-1.898-.632l4-12a1 1 0 011.265-.633zM5.707 6.293a1 1 0 010 1.414L3.414 10l2.293 2.293a1 1 0 11-1.414 1.414l-3-3a1 1 0 010-1.414l3-3a1 1 0 011.414 0zm8.586 0a1 1 0 011.414 0l3 3a1 1 0 010 1.414l-3 3a1 1 0 11-1.414-1.414L16.586 10l-2.293-2.293a1 1 0 010-1.414z" clip-rule="evenodd"/></symbol>
  <symbol viewBox="0 0 20 20" fill="currentColor" aria-hidden="true" id="hr-cog"><path fill-rule="evenodd" d="M11.49 3.17c-.38-1.56-2.6-1.56-2.98 0a1.532 1.532 0 01-2.286.948c-1.372-.836-2.942.734-2.106 2.106.54.886.061 2.042-.947 2.287-1.561.379-1.561 2.6 0 2.978a1.532 1.532 0 01.947 2.287c-.836 1.372.734 2.942 2.106 2.106a1.532 1.532 0 012.287.947c.379 1.561 2.6 1.561 2.978 0a1.533 1.533 0 012.287-.947c1.372.836 2.942-.734 2.106-2.106a1.533 1.533 0 01.947-2.287c1.561-.379 1.561-2.6 0-2.978a1.532 1.532 0 01-.947-2.287c.836-1.372-.734-2.942-2.106-2.106a1.532 1.532 0 01-2.287-.947zM10 13a3 3 0 100-6 3 3 0 000 6z" clip-rule="evenodd"/></symbol>
  <symbol viewBox="0 0 20 20" fill="currentColor" aria-hidden="true" id="hr-chat-alt"><path fill-rule="evenodd" d="M18 5v8a2 2 0 01-2 2h-5l-5 4v-4H4a2 2 0 01-2-2V5a2 2 0 012-2h12a2 2 0 012 2zM7 8H5v2h2V8zm2 0h2v2H9V8zm6 0h-2v2h2V8z" clip-rule="evenodd"/></symbol>
  <symbol viewBox="0 0 20 20" fill="currentColor" aria-hidden="true" id="hr-chat"><path fill-rule="evenodd" d="M18 10c0 3.866-3.582 7-8 7a8.841 8.841 0 01-4.083-.98L2 17l1.338-3.123C2.493 12.767 2 11.434 2 10c0-3.866 3.582-7 8-7s8 3.134 8 7zM7 9H5v2h2V9zm8 0h-2v2h2V9zM9 9h2v2H9V9z" clip-rule="evenodd"/></symbol>
  <symbol viewBox="0 0 20 20" fill="currentColor" aria-hidden="true" id="hr-duplicate"><path d="M7 9a2 2 0 012-2h6a2 2 0 012 2v6a2 2 0 01-2 2H9a2 2 0 01-2-2V9z"/><path d="M5 3a2 2 0 00-2 2v6a2 2 0 002 2V5h8a2 2 0 00-2-2H5z"/></symbol>
  <symbol viewBox="0 0 20 20" fill="currentColor" aria-hidden="true" id="hr-cube"><path d="M11 17a1 1 0 001.447.894l4-2A1 1 0 0017 15V9.236a1 1 0 00-1.447-.894l-4 2a1 1 0 00-.553.894V17zM15.211 6.276a1 1 0 000-1.788l-4.764-2.382a1 1 0 00-.894 0L4.789 4.488a1 1 0 000 1.788l4.764 2.382a1 1 0 00.894 0l4.764-2.382zM4.447 8.342A1 1 0 003 9.236V15a1 1 0 00.553.894l4 2A1 1 0 009 17v-5.764a1 1 0 00-.553-.894l-4-2z"/></symbol>
  <symbol viewBox="0 0 20 20" fill="currentColor" aria-hidden="true" id="hr-heart"><path fill-rule="evenodd" d="M3.172 5.172a4 4 0 015.656 0L10 6.343l1.172-1.171a4 4 0 115.656 5.656L10 17.657l-6.828-6.829a4 4 0 010-5.656z" clip-rule="evenodd"/></symbol>
  <symbol viewBox="0 0 20 20" fill="currentColor" aria-hidden="true" id="hr-download"><path fill-rule="evenodd" d="M3 17a1 1 0 011-1h12a1 1 0 110 2H4a1 1 0 01-1-1zm3.293-7.707a1 1 0 011.414 0L9 10.586V3a1 1 0 112 0v7.586l1.293-1.293a1 1 0 111.414 1.414l-3 3a1 1 0 01-1.414 0l-3-3a1 1 0 010-1.414z" clip-rule="evenodd"/></symbol>
  <symbol viewBox="0 0 20 20" fill="currentColor" aria-hidden="true" id="hr-pencil"><path d="M13.586 3.586a2 2 0 112.828 2.828l-.793.793-2.828-2.828.793-.793zM11.379 5.793L3 14.172V17h2.828l8.38-8.379-2.83-2.828z"/></symbol>
  <symbol viewBox="0 0 20 20" fill="currentColor" aria-hidden="true" id="hr-dots-horizontal"><path d="M6 10a2 2 0 11-4 0 2 2 0 014 0zM12 10a2 2 0 11-4 0 2 2 0 014 0zM16 12a2 2 0 100-4 2 2 0 000 4z"/></symbol>
  <symbol viewBox="0 0 20 20" fill="currentColor" aria-hidden="true" id="hr-dots-vertical"><path d="M10 6a2 2 0 110-4 2 2 0 010 4zM10 12a2 2 0 110-4 2 2 0 010 4zM10 18a2 2 0 110-4 2 2 0 010 4z"/></symbol>
  <symbol viewBox="0 0 20 20" fill="currentColor" aria-hidden="true" id="hr-mail"><path d="M2.003 5.884L10 9.882l7.997-3.998A2 2 0 0016 4H4a2 2 0 00-1.997 1.884z"/><path d="M18 8.118l-8 4-8-4V14a2 2 0 002 2h12a2 2 0 002-2V8.118z"/></symbol>
  <symbol viewBox="0 0 20 20" fill="currentColor" aria-hidden="true" id="hr-switch-horizontal"><path d="M8 5a1 1 0 100 2h5.586l-1.293 1.293a1 1 0 001.414 1.414l3-3a1 1 0 000-1.414l-3-3a1 1 0 10-1.414 1.414L13.586 5H8zM12 15a1 1 0 100-2H6.414l1.293-1.293a1 1 0 10-1.414-1.414l-3 3a1 1 0 000 1.414l3 3a1 1 0 001.414-1.414L6.414 15H12z"/></symbol>
  <symbol viewBox="0 0 20 20" fill="currentColor" aria-hidden="true" id="hr-external-link"><path d="M11 3a1 1 0 100 2h2.586l-6.293 6.293a1 1 0 101.414 1.414L15 6.414V9a1 1 0 102 0V4a1 1 0 00-1-1h-5z"/><path d="M5 5a2 2 0 00-2 2v8a2 2 0 002 2h8a2 2 0 002-2v-3a1 1 0 10-2 0v3H5V7h3a1 1 0 000-2H5z"/></symbol>
  <symbol viewBox="0 0 20 20" fill="currentColor" aria-hidden="true" id="hr-eye-off"><path fill-rule="evenodd" d="M3.707 2.293a1 1 0 00-1.414 1.414l14 14a1 1 0 001.414-1.414l-1.473-1.473A10.014 10.014 0 0019.542 10C18.268 5.943 14.478 3 10 3a9.958 9.958 0 00-4.512 1.074l-1.78-1.781zm4.261 4.26l1.514 1.515a2.003 2.003 0 012.45 2.45l1.514 1.514a4 4 0 00-5.478-5.478z" clip-rule="evenodd"/><path d="M12.454 16.697L9.75 13.992a4 4 0 01-3.742-3.741L2.335 6.578A9.98 9.98 0 00.458 10c1.274 4.057 5.065 7 9.542 7 .847 0 1.669-.105 2.454-.303z"/></symbol>
  <symbol viewBox="0 0 20 20" fill="currentColor" aria-hidden="true" id="hr-eye"><path d="M10 12a2 2 0 100-4 2 2 0 000 4z"/><path fill-rule="evenodd" d="M.458 10C1.732 5.943 5.522 3 10 3s8.268 2.943 9.542 7c-1.274 4.057-5.064 7-9.542 7S1.732 14.057.458 10zM14 10a4 4 0 11-8 0 4 4 0 018 0z" clip-rule="evenodd"/></symbol>
  <symbol viewBox="0 0 20 20" fill="currentColor" aria-hidden="true" id="hr-photograph"><path fill-rule="evenodd" d="M4 3a2 2 0 00-2 2v10a2 2 0 002 2h12a2 2 0 002-2V5a2 2 0 00-2-2H4zm12 12H4l4-8 3 6 2-4 3 6z" clip-rule="evenodd"/></symbol>
  <symbol viewBox="0 0 20 20" fill="currentColor" aria-hidden="true" id="hr-moon"><path d="M17.293 13.293A8 8 0 016.707 2.707a8.001 8.001 0 1010.586 10.586z"/></symbol>
  <symbol viewBox="0 0 20 20" fill="currentColor" aria-hidden="true" id="hr-emoji-happy"><path fill-rule="evenodd" d="M10 18a8 8 0 100-16 8 8 0 000 16zM7 9a1 1 0 100-2 1 1 0 000 2zm7-1a1 1 0 11-2 0 1 1 0 012 0zm-.464 5.535a1 1 0 10-1.415-1.414 3 3 0 01-4.242 0 1 1 0 00-1.415 1.414 5 5 0 007.072 0z" clip-rule="evenodd"/></symbol>
  <symbol viewBox="0 0 20 20" fill="currentColor" aria-hidden="true" id="hr-sun"><path fill-rule="evenodd" d="M10 2a1 1 0 011 1v1a1 1 0 11-2 0V3a1 1 0 011-1zm4 8a4 4 0 11-8 0 4 4 0 018 0zm-.464 4.95l.707.707a1 1 0 001.414-1.414l-.707-.707a1 1 0 00-1.414 1.414zm2.12-10.607a1 1 0 010 1.414l-.706.707a1 1 0 11-1.414-1.414l.707-.707a1 1 0 011.414 0zM17 11a1 1 0 100-2h-1a1 1 0 100 2h1zm-7 4a1 1 0 011 1v1a1 1 0 11-2 0v-1a1 1 0 011-1zM5.05 6.464A1 1 0 106.465 5.05l-.708-.707a1 1 0 00-1.414 1.414l.707.707zm1.414 8.486l-.707.707a1 1 0 01-1.414-1.414l.707-.707a1 1 0 011.414 1.414zM4 11a1 1 0 100-2H3a1 1 0 000 2h1z" clip-rule="evenodd"/></symbol>
  <symbol viewBox="0 0 20 20" fill="currentColor" aria-hidden="true" id="hr-thumb-down"><path d="M18 9.5a1.5 1.5 0 11-3 0v-6a1.5 1.5 0 013 0v6zM14 9.667v-5.43a2 2 0 00-1.105-1.79l-.05-.025A4 4 0 0011.055 2H5.64a2 2 0 00-1.962 1.608l-1.2 6A2 2 0 004.44 12H8v4a2 2 0 002 2 1 1 0 001-1v-.667a4 4 0 01.8-2.4l1.4-1.866a4 4 0 00.8-2.4z"/></symbol>
  <symbol viewBox="0 0 20 20" fill="currentColor" aria-hidden="true" id="hr-thumb-up"><path d="M2 10.5a1.5 1.5 0 113 0v6a1.5 1.5 0 01-3 0v-6zM6 10.333v5.43a2 2 0 001.106 1.79l.05.025A4 4 0 008.943 18h5.416a2 2 0 001.962-1.608l1.2-6A2 2 0 0015.56 8H12V4a2 2 0 00-2-2 1 1 0 00-1 1v.667a4 4 0 01-.8 2.4L6.8 7.933a4 4 0 00-.8 2.4z"/></symbol>
  <symbol viewBox="0 0 20 20" fill="currentColor" aria-hidden="true" id="hr-trash"><path fill-rule="evenodd" d="M9 2a1 1 0 00-.894.553L7.382 4H4a1 1 0 000 2v10a2 2 0 002 2h8a2 2 0 002-2V6a1 1 0 100-2h-3.382l-.724-1.447A1 1 0 0011 2H9zM7 8a1 1 0 012 0v6a1 1 0 11-2 0V8zm5-1a1 1 0 00-1 1v6a1 1 0 102 0V8a1 1 0 00-1-1z" clip-rule="evenodd"/></symbol>
  <symbol viewBox="0 0 20 20" fill="currentColor" aria-hidden="true" id="hr-fast-forward"><path d="M4.555 5.168A1 1 0 003 6v8a1 1 0 001.555.832L10 11.202V14a1 1 0 001.555.832l6-4a1 1 0 000-1.664l-6-4A1 1 0 0010 6v2.798l-5.445-3.63z"/></symbol>
  <symbol viewBox="0 0 20 20" fill="currentColor" aria-hidden="true" id="hr-document"><path fill-rule="evenodd" d="M4 4a2 2 0 012-2h4.586A2 2 0 0112 2.586L15.414 6A2 2 0 0116 7.414V16a2 2 0 01-2 2H6a2 2 0 01-2-2V4z" clip-rule="evenodd"/></symbol>
  <symbol viewBox="0 0 20 20" fill="currentColor" aria-hidden="true" id="hr-filter"><path fill-rule="evenodd" d="M3 3a1 1 0 011-1h12a1 1 0 011 1v3a1 1 0 01-.293.707L12 11.414V15a1 1 0 01-.293.707l-2 2A1 1 0 018 17v-5.586L3.293 6.707A1 1 0 013 6V3z" clip-rule="evenodd"/></symbol>
  <symbol viewBox="0 0 20 20" fill="currentColor" aria-hidden="true" id="hr-flag"><path fill-rule="evenodd" d="M3 6a3 3 0 013-3h10a1 1 0 01.8 1.6L14.25 8l2.55 3.4A1 1 0 0116 13H6a1 1 0 00-1 1v3a1 1 0 11-2 0V6z" clip-rule="evenodd"/></symbol>
  <symbol viewBox="0 0 20 20" fill="currentColor" aria-hidden="true" id="hr-folder-open"><path fill-rule="evenodd" d="M2 6a2 2 0 012-2h4l2 2h4a2 2 0 012 2v1H8a3 3 0 00-3 3v1.5a1.5 1.5 0 01-3 0V6z" clip-rule="evenodd"/><path d="M6 12a2 2 0 012-2h8a2 2 0 012 2v2a2 2 0 01-2 2H2h2a2 2 0 002-2v-2z"/></symbol>
  <symbol viewBox="0 0 20 20" fill="currentColor" aria-hidden="true" id="hr-folder"><path d="M2 6a2 2 0 012-2h5l2 2h5a2 2 0 012 2v6a2 2 0 01-2 2H4a2 2 0 01-2-2V6z"/></symbol>
  <symbol viewBox="0 0 20 20" fill="currentColor" aria-hidden="true" id="hr-home"><path d="M10.707 2.293a1 1 0 00-1.414 0l-7 7a1 1 0 001.414 1.414L4 10.414V17a1 1 0 001 1h2a1 1 0 001-1v-2a1 1 0 011-1h2a1 1 0 011 1v2a1 1 0 001 1h2a1 1 0 001-1v-6.586l.293.293a1 1 0 001.414-1.414l-7-7z"/></symbol>
  <symbol viewBox="0 0 20 20" fill="currentColor" aria-hidden="true" id="hr-information-circle"><path fill-rule="evenodd" d="M18 10a8 8 0 11-16 0 8 8 0 0116 0zm-7-4a1 1 0 11-2 0 1 1 0 012 0zM9 9a1 1 0 000 2v3a1 1 0 001 1h1a1 1 0 100-2v-3a1 1 0 00-1-1H9z" clip-rule="evenodd"/></symbol>
  <symbol viewBox="0 0 20 20" fill="currentColor" aria-hidden="true" id="hr-key"><path fill-rule="evenodd" d="M18 8a6 6 0 01-7.743 5.743L10 14l-1 1-1 1H6v2H2v-4l4.257-4.257A6 6 0 1118 8zm-6-4a1 1 0 100 2 2 2 0 012 2 1 1 0 102 0 4 4 0 00-4-4z" clip-rule="evenodd"/></symbol>
  <symbol viewBox="0 0 20 20" fill="currentColor" aria-hidden="true" id="hr-collection"><path d="M7 3a1 1 0 000 2h6a1 1 0 100-2H7zM4 7a1 1 0 011-1h10a1 1 0 110 2H5a1 1 0 01-1-1zM2 11a2 2 0 012-2h12a2 2 0 012 2v4a2 2 0 01-2 2H4a2 2 0 01-2-2v-4z"/></symbol>
  <symbol viewBox="0 0 20 20" fill="currentColor" aria-hidden="true" id="hr-link"><path fill-rule="evenodd" d="M12.586 4.586a2 2 0 112.828 2.828l-3 3a2 2 0 01-2.828 0 1 1 0 00-1.414 1.414 4 4 0 005.656 0l3-3a4 4 0 00-5.656-5.656l-1.5 1.5a1 1 0 101.414 1.414l1.5-1.5zm-5 5a2 2 0 012.828 0 1 1 0 101.414-1.414 4 4 0 00-5.656 0l-3 3a4 4 0 105.656 5.656l1.5-1.5a1 1 0 10-1.414-1.414l-1.5 1.5a2 2 0 11-2.828-2.828l3-3z" clip-rule="evenodd"/></symbol>
  <symbol viewBox="0 0 20 20" fill="currentColor" aria-hidden="true" id="hr-lock-closed"><path fill-rule="evenodd" d="M5 9V7a5 5 0 0110 0v2a2 2 0 012 2v5a2 2 0 01-2 2H5a2 2 0 01-2-2v-5a2 2 0 012-2zm8-2v2H7V7a3 3 0 016 0z" clip-rule="evenodd"/></symbol>
  <symbol viewBox="0 0 20 20" fill="currentColor" aria-hidden="true" id="hr-location-marker"><path fill-rule="evenodd" d="M5.05 4.05a7 7 0 119.9 9.9L10 18.9l-4.95-4.95a7 7 0 010-9.9zM10 11a2 2 0 100-4 2 2 0 000 4z" clip-rule="evenodd"/></symbol>
  <symbol viewBox="0 0 20 20" fill="currentColor" aria-hidden="true" id="hr-pencil-alt"><path d="M17.414 2.586a2 2 0 00-2.828 0L7 10.172V13h2.828l7.586-7.586a2 2 0 000-2.828z"/><path fill-rule="evenodd" d="M2 6a2 2 0 012-2h4a1 1 0 010 2H4v10h10v-4a1 1 0 112 0v4a2 2 0 01-2 2H4a2 2 0 01-2-2V6z" clip-rule="evenodd"/></symbol>
  <symbol viewBox="0 0 20 20" fill="currentColor" aria-hidden="true" id="hr-users"><path d="M9 6a3 3 0 11-6 0 3 3 0 016 0zM17 6a3 3 0 11-6 0 3 3 0 016 0zM12.93 17c.046-.327.07-.66.07-1a6.97 6.97 0 00-1.5-4.33A5 5 0 0119 16v1h-6.07zM6 11a5 5 0 015 5v1H1v-1a5 5 0 015-5z"/></symbol>
  <symbol viewBox="0 0 20 20" fill="currentColor" aria-hidden="true" id="hr-user"><path fill-rule="evenodd" d="M10 9a3 3 0 100-6 3 3 0 000 6zm-7 9a7 7 0 1114 0H3z" clip-rule="evenodd"/></symbol>
  <symbol viewBox="0 0 20 20" fill="currentColor" aria-hidden="true" id="hr-user-add"><path d="M8 9a3 3 0 100-6 3 3 0 000 6zM8 11a6 6 0 016 6H2a6 6 0 016-6zM16 7a1 1 0 10-2 0v1h-1a1 1 0 100 2h1v1a1 1 0 102 0v-1h1a1 1 0 100-2h-1V7z"/></symbol>
  <symbol viewBox="0 0 20 20" fill="currentColor" aria-hidden="true" id="hr-reply"><path fill-rule="evenodd" d="M7.707 3.293a1 1 0 010 1.414L5.414 7H11a7 7 0 017 7v2a1 1 0 11-2 0v-2a5 5 0 00-5-5H5.414l2.293 2.293a1 1 0 11-1.414 1.414l-4-4a1 1 0 010-1.414l4-4a1 1 0 011.414 0z" clip-rule="evenodd"/></symbol>
  <symbol viewBox="0 0 20 20" fill="currentColor" aria-hidden="true" id="hr-plus"><path fill-rule="evenodd" d="M10 3a1 1 0 011 1v5h5a1 1 0 110 2h-5v5a1 1 0 11-2 0v-5H4a1 1 0 110-2h5V4a1 1 0 011-1z" clip-rule="evenodd"/></symbol>
  <symbol viewBox="0 0 20 20" fill="currentColor" aria-hidden="true" id="hr-search"><path fill-rule="evenodd" d="M8 4a4 4 0 100 8 4 4 0 000-8zM2 8a6 6 0 1110.89 3.476l4.817 4.817a1 1 0 01-1.414 1.414l-4.816-4.816A6 6 0 012 8z" clip-rule="evenodd"/></symbol>
  <symbol viewBox="0 0 20 20" fill="currentColor" aria-hidden="true" id="hr-share"><path d="M15 8a3 3 0 10-2.977-2.63l-4.94 2.47a3 3 0 100 4.319l4.94 2.47a3 3 0 10.895-1.789l-4.94-2.47a3.027 3.027 0 000-.74l4.94-2.47C13.456 7.68 14.19 8 15 8z"/></symbol>
  <symbol viewBox="0 0 20 20" fill="currentColor" aria-hidden="true" id="hr-login"><path fill-rule="evenodd" d="M3 3a1 1 0 011 1v12a1 1 0 11-2 0V4a1 1 0 011-1zm7.707 3.293a1 1 0 010 1.414L9.414 9H17a1 1 0 110 2H9.414l1.293 1.293a1 1 0 01-1.414 1.414l-3-3a1 1 0 010-1.414l3-3a1 1 0 011.414 0z" clip-rule="evenodd"/></symbol>
  <symbol viewBox="0 0 20 20" fill="currentColor" aria-hidden="true" id="hr-logout"><path fill-rule="evenodd" d="M3 3a1 1 0 00-1 1v12a1 1 0 102 0V4a1 1 0 00-1-1zm10.293 9.293a1 1 0 001.414 1.414l3-3a1 1 0 000-1.414l-3-3a1 1 0 10-1.414 1.414L14.586 9H7a1 1 0 100 2h7.586l-1.293 1.293z" clip-rule="evenodd"/></symbol>
  <symbol viewBox="0 0 20 20" fill="currentColor" aria-hidden="true" id="hr-adjustments"><path d="M5 4a1 1 0 00-2 0v7.268a2 2 0 000 3.464V16a1 1 0 102 0v-1.268a2 2 0 000-3.464V4zM11 4a1 1 0 10-2 0v1.268a2 2 0 000 3.464V16a1 1 0 102 0V8.732a2 2 0 000-3.464V4zM16 3a1 1 0 011 1v7.268a2 2 0 010 3.464V16a1 1 0 11-2 0v-1.268a2 2 0 010-3.464V4a1 1 0 011-1z"/></symbol>
  <symbol viewBox="0 0 20 20" fill="currentColor" aria-hidden="true" id="hr-refresh"><path fill-rule="evenodd" d="M4 2a1 1 0 011 1v2.101a7.002 7.002 0 0111.601 2.566 1 1 0 11-1.885.666A5.002 5.002 0 005.999 7H9a1 1 0 010 2H4a1 1 0 01-1-1V3a1 1 0 011-1zm.008 9.057a1 1 0 011.276.61A5.002 5.002 0 0014.001 13H11a1 1 0 110-2h5a1 1 0 011 1v5a1 1 0 11-2 0v-2.101a7.002 7.002 0 01-11.601-2.566 1 1 0 01.61-1.276z" clip-rule="evenodd"/></symbol>
  <symbol viewBox="0 0 20 20" fill="currentColor" aria-hidden="true" id="hr-x-circle"><path fill-rule="evenodd" d="M10 18a8 8 0 100-16 8 8 0 000 16zM8.707 7.293a1 1 0 00-1.414 1.414L8.586 10l-1.293 1.293a1 1 0 101.414 1.414L10 11.414l1.293 1.293a1 1 0 001.414-1.414L11.414 10l1.293-1.293a1 1 0 00-1.414-1.414L10 8.586 8.707 7.293z" clip-rule="evenodd"/></symbol>
  <symbol viewBox="0 0 20 20" fill="currentColor" aria-hidden="true" id="hr-x"><path fill-rule="evenodd" d="M4.293 4.293a1 1 0 011.414 0L10 8.586l4.293-4.293a1 1 0 111.414 1.414L11.414 10l4.293 4.293a1 1 0 01-1.414 1.414L10 11.414l-4.293 4.293a1 1 0 01-1.414-1.414L8.586 10 4.293 5.707a1 1 0 010-1.414z" clip-rule="evenodd"/></symbol>
  <symbol viewBox="0 0 20 20" fill="currentColor" aria-hidden="true" id="hr-lock-open"><path d="M10 2a5 5 0 00-5 5v2a2 2 0 00-2 2v5a2 2 0 002 2h10a2 2 0 002-2v-5a2 2 0 00-2-2H7V7a3 3 0 015.905-.75 1 1 0 001.937-.5A5.002 5.002 0 0010 2z"/></symbol>
  <symbol viewBox="0 0 20 20" fill="currentColor" aria-hidden="true" id="hr-upload"><path fill-rule="evenodd" d="M3 17a1 1 0 011-1h12a1 1 0 110 2H4a1 1 0 01-1-1zM6.293 6.707a1 1 0 010-1.414l3-3a1 1 0 011.414 0l3 3a1 1 0 01-1.414 1.414L11 5.414V13a1 1 0 11-2 0V5.414L7.707 6.707a1 1 0 01-1.414 0z" clip-rule="evenodd"/></symbol>
  <symbol viewBox="0 0 20 20" fill="currentColor" aria-hidden="true" id="hr-video-camera"><path d="M2 6a2 2 0 012-2h6a2 2 0 012 2v8a2 2 0 01-2 2H4a2 2 0 01-2-2V6zM14.553 7.106A1 1 0 0014 8v4a1 1 0 00.553.894l2 1A1 1 0 0018 13V7a1 1 0 00-1.447-.894l-2 1z"/></symbol>
</svg>
